<svg xmlns="http://www.w3.org/2000/svg" viewBox="0 0 512 512">
  <defs>
    <linearGradient id="bg" x1="0%" y1="0%" x2="100%" y2="100%">
      <stop offset="0%" style="stop-color:#0d9488"/>
      <stop offset="100%" style="stop-color:#2c3e50"/>
    </linearGradient>
  </defs>
  <!-- Rounded square background -->
  <rect width="512" height="512" rx="96" ry="96" fill="url(#bg)"/>
  <!-- Sofa/couch icon (simplified furniture silhouette) -->
  <g transform="translate(256,195)" fill="none" stroke="#ffffff" stroke-width="18" stroke-linecap="round" stroke-linejoin="round">
    <!-- Sofa back -->
    <path d="M-110,-45 Q-110,-90 -60,-90 L60,-90 Q110,-90 110,-45"/>
    <!-- Sofa seat -->
    <path d="M-130,-45 L-130,10 Q-130,35 -105,35 L105,35 Q130,35 130,10 L130,-45"/>
    <!-- Armrests -->
    <path d="M-130,-45 Q-155,-45 -155,-10 L-155,20 Q-155,35 -140,35 L-130,35"/>
    <path d="M130,-45 Q155,-45 155,-10 L155,20 Q155,35 140,35 L130,35"/>
    <!-- Legs -->
    <line x1="-115" y1="35" x2="-115" y2="55"/>
    <line x1="115" y1="35" x2="115" y2="55"/>
  </g>
  <!-- NLF text -->
  <text x="256" y="360" text-anchor="middle" font-family="'Segoe UI',system-ui,-apple-system,sans-serif" font-size="120" font-weight="800" fill="#ffffff" letter-spacing="12">NLF</text>
  <!-- Tagline -->
  <text x="256" y="415" text-anchor="middle" font-family="'Segoe UI',system-ui,-apple-system,sans-serif" font-size="36" font-weight="500" fill="rgba(255,255,255,0.7)" letter-spacing="8">FURNITURE</text>
</svg>
